<svg width="368" height="315" viewBox="0 0 368 315" fill="none" xmlns="http://www.w3.org/2000/svg">
<path d="M274.231 157.145V121.002L246.931 244.04C246.239 247.164 243.621 249.489 240.439 249.81C240.189 249.834 239.941 249.846 239.695 249.846C236.792 249.846 234.127 248.143 232.928 245.449L196.923 164.556H113.68C109.588 164.556 106.27 161.24 106.27 157.146C106.27 153.053 109.588 149.736 113.68 149.736H201.735C204.662 149.736 207.314 151.458 208.505 154.133L237.33 218.896L274.408 51.7943C275.226 48.1033 278.696 45.6413 282.449 46.0313C286.207 46.4443 289.052 49.6184 289.052 53.3984V149.736H333.782C338.107 140.346 340.941 131.343 341.765 123.025L342.426 122.057H341.887C342.232 118.976 342.426 115.85 342.426 112.677C342.426 66.5643 305.044 29.1833 258.932 29.1833C232.567 29.1833 209.071 41.4163 193.769 60.5023C178.467 41.4163 154.971 29.1833 128.606 29.1833C82.4934 29.1833 45.1124 66.5643 45.1124 112.677C45.1124 115.85 45.3054 118.976 45.6504 122.057H45.1124L45.7684 122.981C64.6614 196.995 196.616 302.884 196.616 302.884C196.616 302.884 288.136 228.59 325.957 164.556H281.641C277.549 164.555 274.231 161.239 274.231 157.145Z" fill="url(#paint0_linear_102_5)"/>
<path d="M59.7563 301.038C59.2653 298.02 59.5453 293.969 59.5453 293.969C59.5453 293.969 55.6253 284.044 53.1053 293.969C52.4903 296.39 52.6203 299.126 52.3193 301.038H59.1963H59.7563Z" fill="#FFC7C7"/>
<path d="M69.9054 305.99C68.2724 306.083 65.4254 305.431 62.2644 303.334C61.3404 302.721 60.7254 301.664 60.3164 300.477H51.7594C50.8264 306.405 51.1454 309.763 51.1454 309.763H55.4854L55.6254 307.666L56.1854 309.763H72.9854C72.9854 309.765 73.5744 305.781 69.9054 305.99Z" fill="#262626"/>
<path d="M30.6444 301.038C30.1534 298.02 30.4334 293.969 30.4334 293.969C30.4334 293.969 26.5134 284.044 23.9934 293.969C23.3784 296.39 23.5084 299.126 23.2074 301.038H30.0844H30.6444Z" fill="#FFC7C7"/>
<path d="M40.7934 305.99C39.1604 306.083 36.3135 305.431 33.1525 303.334C32.2285 302.721 31.6135 301.664 31.2045 300.477H22.6474C21.7144 306.405 22.0334 309.763 22.0334 309.763H26.3735L26.5135 307.666L27.0734 309.763H43.8735C43.8735 309.765 44.4624 305.781 40.7934 305.99Z" fill="#262626"/>
<path d="M77.3364 131.172C77.3364 131.172 79.3754 130.093 81.8884 129.927C84.4014 129.761 90.7874 126.069 92.2004 123.464C93.6134 120.858 89.4314 123.464 89.4314 123.464C89.4314 123.464 92.7664 122.161 92.8224 121.021C92.8794 119.881 88.7854 121.537 88.7854 121.537C88.7854 121.537 91.2394 121.238 91.2964 120.207C91.3524 119.175 87.2274 119.773 84.8534 121.021C82.4794 122.27 78.6254 124.169 79.6074 121.957C80.5894 119.745 81.5394 117.995 79.8244 119.116C78.7514 119.817 76.9424 123.361 76.6034 125.068C76.2644 126.775 74.8514 127.101 74.8514 127.101L77.3364 131.172Z" fill="#FFC7C7"/>
<path d="M34.4854 92.6245C34.4854 92.6245 39.6054 91.8885 43.0304 92.6245C46.4554 93.3605 38.5794 100.75 38.4234 100.6C38.2674 100.45 33.4774 96.1495 33.4774 96.1495L34.4854 92.6245Z" fill="#C3D8F2"/>
<path d="M42.9064 83.2365H35.2794V97.0004H42.9064V83.2365Z" fill="#FFC7C7"/>
<path d="M42.9064 91.4904V83.2365H35.2794V86.6884C38.0234 89.6294 41.4954 91.0275 41.4954 91.0275C41.9584 91.1975 42.4314 91.3524 42.9064 91.4904Z" fill="#FFC7C7"/>
<path d="M20.5224 157.36L20.5734 167.143L20.5964 167.151C20.5964 167.151 20.6124 201.123 23.8004 222.551C24.0104 223.959 22.3154 232.815 22.0084 234.209C21.2724 237.552 20.0284 245.681 20.4804 261.219C21.1084 282.837 22.5064 296.849 22.5064 296.849L31.9804 297.222L38.1994 227.753L40.9674 158.279L20.5224 157.36Z" fill="#606060"/>
<path d="M35.2455 158.441L36.2715 168.175L36.2945 168.181C36.2945 168.181 39.6975 201.996 45.0075 223.032C45.3565 224.414 44.5525 233.386 44.3865 234.801C43.9875 238.197 43.5595 246.402 45.5585 261.827C48.3395 283.288 51.1275 297.107 51.1275 297.107L60.5945 296.606L59.8585 226.885L55.6875 157.476L35.2455 158.441Z" fill="#515151"/>
<path d="M35.9015 77.0364C35.9015 77.0364 34.8815 73.8614 33.2075 74.8304C31.5335 75.7994 33.1175 82.7554 35.4885 82.1954C37.8595 81.6354 35.9015 77.0364 35.9015 77.0364Z" fill="#FFC7C7"/>
<path d="M42.9064 83.2365H35.2794V97.0004H42.9064V83.2365Z" fill="#FFC7C7"/>
<path d="M42.9064 91.4904V83.2365H35.2794V86.6884C38.0234 89.6294 41.4954 91.0275 41.4954 91.0275C41.9584 91.1975 42.4314 91.3524 42.9064 91.4904Z" fill="#FFC7C7"/>
<path d="M74.6705 124.117L62.6675 134.996L60.2575 108.919C60.2485 108.77 60.2335 108.603 60.2145 108.453C59.7315 104.714 56.7285 95.4625 52.8355 95.9265C52.4385 95.9735 52.0565 96.0595 51.6855 96.1645C46.2785 98.1705 47.5135 107.861 48.0865 114.572L52.3235 147.38L52.3655 147.708C52.5195 148.89 53.0905 150.027 54.0715 150.899C56.2805 152.862 59.7285 152.734 61.7725 150.611L80.0305 132.813L74.6705 124.117Z" fill="#DEF1F9"/>
<path d="M35.9015 77.0364C35.9015 77.0364 34.8815 73.8614 33.2075 74.8304C31.5335 75.7994 33.1175 82.7554 35.4885 82.1954C37.8595 81.6354 35.9015 77.0364 35.9015 77.0364Z" fill="#FFC7C7"/>
<path d="M56.6474 167.903L58.8864 112.156C59.1464 102.958 55.9874 95.3585 46.0984 94.4475L38.5614 93.5525C38.5614 93.5525 24.8304 94.4125 22.2254 95.1925C19.6214 95.9725 17.2964 99.0495 16.7394 109.737C16.7364 109.79 16.7424 109.831 16.7414 109.882C16.6744 110.625 16.6354 111.38 16.6574 112.156L19.6854 167.903H56.6474Z" fill="#7373E0"/>
<path d="M48.2835 63.2314C46.7505 60.9944 40.5305 58.7884 36.5125 61.3914C32.4935 63.9944 31.2055 68.0394 30.9725 73.6454C30.8495 76.5994 32.2595 79.9604 33.6205 82.4804C36.3555 87.0074 41.9315 88.4824 41.9315 88.4824C43.8745 88.9304 45.9445 89.1024 47.5495 88.4744C50.7845 84.5204 51.0385 78.5764 50.9635 75.8524C50.7275 72.8284 50.3785 70.3904 50.3075 69.9074C50.3075 69.9074 49.8165 65.4684 48.2835 63.2314Z" fill="#FFC7C7"/>
<path d="M35.4974 92.5125L33.6394 93.1015L32.6604 93.9825C32.6604 93.9825 33.4244 104.051 39.8104 104.018C46.1974 103.985 45.2254 94.1165 45.2254 94.1165L40.6434 93.1494L35.4974 92.5125Z" fill="#FFC7C7"/>
<path d="M33.6205 82.4805C32.2585 79.9605 30.8495 76.5995 30.9725 73.6455C31.1605 69.1405 32.0325 65.6465 34.4515 63.0955C35.3975 62.4585 36.6125 61.8725 38.2235 61.3735C39.3725 61.0175 40.5935 60.9495 41.7745 61.1545C42.8775 61.3455 44.5525 61.6035 46.7225 61.8545C47.4085 62.2825 47.9575 62.7545 48.2845 63.2315C49.8185 65.4685 50.3085 69.9065 50.3085 69.9065C50.3505 70.1915 50.4895 71.1625 50.6455 72.5295C48.1205 74.1995 45.3075 73.9845 42.8555 72.3365C40.0215 70.4325 34.7515 73.5705 35.6245 77.7155C36.0295 79.6385 37.0975 83.2115 37.8375 86.6105C36.3395 85.6725 34.7415 84.3365 33.6205 82.4805Z" fill="#FFC7C7"/>
<path d="M55.7355 97.3515C55.7355 97.3515 54.7335 95.4945 49.1845 94.6465C43.6355 93.7985 53.0315 103.187 53.0315 103.187L55.7355 97.3515Z" fill="#FCFCFC"/>
<path d="M61.2704 229.608C60.9694 219.666 59.6274 174.934 59.1244 151.055C58.7854 135.007 58.8504 118.576 58.9574 107.901C59.0294 100.718 53.4454 94.6734 46.0204 93.8234C45.1924 93.7284 44.3324 93.6374 43.4434 93.5524C43.4434 93.5524 46.1254 100.669 38.7174 129.501C38.7124 129.478 38.7084 129.453 38.7034 129.43C32.6674 100.55 34.4864 93.4244 34.4864 93.4244C30.6064 93.7504 27.2144 94.1624 24.4604 94.5574C19.9974 95.1964 16.7194 98.9034 16.7834 103.237C16.9314 113.334 17.0984 132.386 16.6534 150.927C16.0784 174.903 14.5414 219.912 14.2074 229.608C14.2074 229.608 40.5014 234.699 61.2704 229.608Z" fill="#EBFCFF"/>
<path d="M21.4175 111.213L9.87249 141.939L7.66549 136.3L37.8435 153.962C39.0825 154.687 39.4995 156.28 38.7745 157.519C38.0995 158.673 36.6715 159.113 35.4785 158.583L3.50448 144.431C1.43848 143.516 0.451485 141.17 1.19649 139.075L1.29848 138.792L12.3675 107.891C13.2655 105.384 16.0255 104.08 18.5315 104.978C21.0385 105.876 22.3425 108.636 21.4445 111.142C21.4385 111.158 21.4235 111.198 21.4175 111.213Z" fill="#FFC7C7"/>
<path d="M44.9784 58.4594C47.0794 59.2444 48.7054 60.9435 49.5874 63.0065C49.9314 63.8125 50.4384 64.6234 51.1244 64.8194C52.5894 65.2384 54.7904 66.3125 53.7904 69.0125C52.7904 71.7125 49.1714 73.4704 46.5314 72.6814C43.8914 71.8924 41.4484 69.1965 39.3334 70.4045C37.2184 71.6125 38.3034 77.3165 36.1314 76.3655C33.9594 75.4145 33.2644 78.3235 35.4484 80.7395C37.6284 83.1515 36.4524 86.1365 34.9874 85.7175C33.5224 85.2985 30.0834 80.2005 29.6894 74.1385C29.2954 68.0765 32.1544 61.3405 36.3274 60.7815C36.3274 60.7815 39.9204 56.5704 44.9784 58.4594Z" fill="#2E2E4F"/>
<path d="M37.5794 75.0544C37.5794 75.0544 38.6964 78.5324 39.6744 79.5334C40.6524 80.5354 43.1374 78.9835 45.3744 79.5125C48.5174 80.2565 50.7794 79.9184 50.7794 79.9184C50.7794 79.9184 50.1824 88.4225 47.4314 89.2155C44.6804 90.0085 38.5064 88.5015 37.7594 87.2795C37.0124 86.0575 38.4214 77.6805 36.1314 76.3645C33.8414 75.0485 37.5794 75.0544 37.5794 75.0544Z" fill="#2E2E4F"/>
<path d="M33.8814 158.887C33.8814 158.887 36.3464 159.517 37.9354 160.932C39.5244 162.347 47.9244 162.832 49.2514 160.998C50.5784 159.164 48.9794 158.549 48.9794 158.549C48.9794 158.549 50.1704 158.647 50.1064 158.026C49.9644 156.643 38.6884 155.422 40.2744 154.593C41.8604 153.763 44.3994 156 45.0874 155.619C45.7754 155.238 44.2814 153.72 40.3894 152.583C40.3894 152.583 39.4634 152.165 33.9634 153.633C28.4654 155.101 33.8814 158.887 33.8814 158.887Z" fill="#FFC7C7"/>
<path d="M36.4786 176.606L62.307 181.291L69.2701 142.91L43.4418 138.225L36.4786 176.606Z" fill="#303030"/>
<path d="M40.3905 152.583C40.3905 152.583 39.4645 152.165 33.9645 153.633C28.4655 155.101 33.8815 158.888 33.8815 158.888C33.8815 158.888 36.3465 159.518 37.9355 160.933C39.5245 162.348 47.9245 162.833 49.2515 160.999C50.5785 159.165 48.9795 158.55 48.9795 158.55C48.9795 158.55 50.1705 158.648 50.1065 158.027C49.9645 156.644 38.6885 155.423 40.2745 154.594L40.3905 152.583Z" fill="#FFC7C7"/>
<path d="M57.5485 143.901C57.5485 144.453 57.9955 144.9 58.5475 144.9C59.0995 144.9 59.5465 144.453 59.5465 143.901C59.5465 143.349 59.0995 142.902 58.5475 142.902C57.9955 142.902 57.5485 143.35 57.5485 143.901Z" fill="#BFBFBF"/>
<path d="M52.5444 142.902C52.5444 143.454 52.9914 143.901 53.5434 143.901C54.0954 143.901 54.5424 143.454 54.5424 142.902C54.5424 142.35 54.0954 141.903 53.5434 141.903C52.9914 141.903 52.5444 142.351 52.5444 142.902Z" fill="#BFBFBF"/>
<path d="M22.2264 95.1924C22.2264 95.1924 15.1624 95.8584 11.4734 108.942C7.78444 122.026 0.355432 135.995 0.0354322 138.519C-1.21757 148.432 31.1784 160.057 31.1784 160.057C31.1784 160.057 31.5524 153.315 36.2864 150.472C36.2864 150.472 10.7374 138.428 12.5214 135.975C15.6354 131.694 19.9184 119.845 19.9184 119.845C19.9184 119.845 23.9934 102.794 22.2264 95.1924Z" fill="#EAF8FF"/>
<path d="M51.2055 111.689C51.1965 111.543 50.2825 96.9774 48.5475 94.4194C46.8365 91.8974 42.9455 91.8685 42.9065 91.8685V91.1115C43.0825 91.1115 47.2395 91.1434 49.1735 93.9944C51.0245 96.7214 51.9235 111.034 51.9615 111.642L51.2055 111.689Z" fill="#999999"/>
<path d="M27.0034 111.689L26.2484 111.643C26.2854 111.035 27.1854 96.7224 29.0354 93.9954C30.9694 91.1444 35.1264 91.1124 35.3024 91.1124V91.8694C35.2634 91.8694 31.3674 91.9044 29.6604 94.4204C27.9274 96.9784 27.0124 111.543 27.0034 111.689Z" fill="#999999"/>
<path d="M50.2104 94.5755L47.3194 106.352L50.4434 108.753L38.5454 130.711L43.0304 92.6245L50.2104 94.5755Z" fill="url(#paint1_linear_102_5)"/>
<path d="M49.2684 113.769C49.2684 112.491 50.3044 111.454 51.5834 111.454C52.8624 111.454 53.8984 112.49 53.8984 113.769C53.8984 115.048 52.8624 116.084 51.5834 116.084C50.3044 116.084 49.2684 115.048 49.2684 113.769Z" fill="#B7B7B7"/>
<path d="M51.5824 115.138C52.3385 115.138 52.9514 114.525 52.9514 113.769C52.9514 113.013 52.3385 112.4 51.5824 112.4C50.8263 112.4 50.2134 113.013 50.2134 113.769C50.2134 114.525 50.8263 115.138 51.5824 115.138Z" fill="#CECECE"/>
<path d="M27.3244 93.8875L30.1964 106.352L27.0724 108.753L38.5454 130.711L38.7024 129.558L34.4854 92.6245L27.3244 93.8875Z" fill="url(#paint2_linear_102_5)"/>
<path d="M32.3844 126.859L31.6314 126.787C31.6414 126.685 32.5814 116.552 29.4674 113.006C28.8014 112.248 28.0194 111.864 27.0764 111.833C25.4894 111.784 24.1614 112.313 23.1204 113.416C19.5074 117.248 20.3304 126.693 20.3394 126.788L19.5854 126.858C19.5484 126.457 18.7214 116.979 22.5694 112.898C23.7654 111.631 25.2904 111.027 27.1014 111.077C28.2494 111.115 29.2364 111.597 30.0364 112.508C33.3654 116.299 32.4264 126.43 32.3844 126.859Z" fill="#999999"/>
<path d="M30.9354 126.445C30.9354 126.097 31.3774 125.814 31.9224 125.814C32.4674 125.814 32.9094 126.096 32.9094 126.445C32.9094 126.793 32.4674 127.076 31.9224 127.076C31.3774 127.075 30.9354 126.793 30.9354 126.445Z" fill="#999999"/>
<path d="M19.1484 126.445C19.1484 126.097 19.5904 125.814 20.1354 125.814C20.6804 125.814 21.1224 126.096 21.1224 126.445C21.1224 126.793 20.6804 127.076 20.1354 127.076C19.5904 127.075 19.1484 126.793 19.1484 126.445Z" fill="#999999"/>
<path d="M142.903 67.1134L134.122 74.3394C134.122 74.3394 131.113 92.3314 132.979 101.793C134.844 111.256 134.106 204.867 134.106 204.867C134.106 204.867 167.889 227.793 181.258 216.694C181.258 216.694 166.635 214.355 169.907 200.298C174.28 181.513 174.28 168.641 166.321 152.105C161.97 143.064 168.858 108.681 160.049 97.6084L142.903 67.1134Z" fill="#2E2E4F"/>
<path d="M140.019 89.5675C141.474 90.9845 143.072 91.8495 144.604 91.8495C146.288 91.8495 147.976 90.9185 149.458 89.2855L149.49 82.4925L140.053 82.4275L140.019 89.5675Z" fill="#FFC7C7"/>
<path d="M139.992 93.8184L140.056 78.0924L149.475 78.1664L150.468 94.1694C157.747 95.8644 162.451 101.338 163.302 109.271C163.425 110.417 163.429 111.65 163.344 112.759L159.293 161.729C158.677 169.174 152.209 174.705 144.847 174.082C138.354 173.533 133.335 168.375 132.663 162.059L127.425 113.204C126.478 104.384 131.917 96.3544 139.992 93.8184Z" fill="#FFC7C7"/>
<path d="M136.54 154.317C137.657 166.479 138.145 178.621 138.429 190.757C138.577 196.825 138.627 202.892 138.651 208.958C138.639 211.991 138.657 215.022 138.621 218.054C138.605 221.086 138.526 224.118 138.588 227.151C138.74 239.282 138.704 251.411 138.446 263.543C138.152 275.675 137.7 287.809 136.684 299.954C136.57 301.323 135.367 302.34 133.998 302.226C132.783 302.124 131.846 301.165 131.73 299.994C130.52 287.856 129.875 275.706 129.386 263.555C128.935 251.404 128.705 239.25 128.662 227.098C128.597 224.06 128.771 221.022 128.84 217.985C128.925 214.947 129.062 211.91 129.17 208.873C129.434 202.799 129.724 196.725 130.112 190.654C130.877 178.511 131.845 166.374 133.442 154.257C133.555 153.404 134.337 152.803 135.19 152.916C135.928 153.012 136.475 153.608 136.54 154.317Z" fill="#FFC7C7"/>
<path d="M161.021 155.023L159.936 226.727L159.757 224.778L176.25 299.261C176.583 300.765 175.634 302.254 174.13 302.588C172.704 302.904 171.288 302.056 170.861 300.687L148.38 227.787L148.354 227.701C148.164 227.085 148.122 226.438 148.202 225.838L157.934 154.789C158.05 153.94 158.832 153.346 159.681 153.463C160.467 153.57 161.034 154.249 161.021 155.023Z" fill="#FFC7C7"/>
<path d="M134.993 101.742C134.993 101.742 143.147 118.465 153.087 101.742C163.028 85.0194 153.087 150.362 153.087 150.362C153.087 150.362 146.299 154.388 133.605 150.362C120.911 146.336 134.993 101.742 134.993 101.742Z" fill="#658BC8"/>
<path d="M161.013 155.568C160.863 155.041 160.711 154.511 160.551 153.966C160.551 153.966 159.669 154.111 158.096 154.293C158.018 154.445 157.958 154.609 157.934 154.788L148.202 225.837C148.122 226.437 148.164 227.084 148.354 227.7L148.38 227.786L150.41 234.37C154.498 234.043 158.359 233.438 161.169 232.384C161.169 232.384 161.157 231.9 161.142 231.035L159.951 225.657L161.013 155.568Z" fill="#FFC7C7"/>
<path d="M130.114 190.653C129.726 196.725 129.435 202.798 129.172 208.872C129.063 211.909 128.926 214.946 128.842 217.984C128.774 221.022 128.599 224.059 128.664 227.097C128.672 229.489 128.694 231.881 128.717 234.273C129.94 234.362 133.824 234.619 138.654 234.689C138.639 232.176 138.621 229.664 138.589 227.152C138.526 224.119 138.605 221.086 138.622 218.054C138.657 215.022 138.64 211.99 138.652 208.958C138.629 202.893 138.578 196.825 138.43 190.757C138.149 178.769 137.667 166.776 136.579 154.763C135.541 154.692 134.484 154.604 133.414 154.5C131.836 166.536 130.874 178.592 130.114 190.653Z" fill="#FFC7C7"/>
<path d="M128.92 150.293C128.92 150.293 125.245 170.859 125.555 184.611C125.865 198.363 128.3 230.57 128.3 230.57C128.3 230.57 151.258 232.428 161.168 228.712C161.168 228.712 160.549 204.023 162.716 191.593C164.884 179.163 166.742 171.283 160.548 150.293C160.55 150.293 145.911 152.702 128.92 150.293Z" fill="#658BC8"/>
<path opacity="0.29" d="M139.467 183.949C139.467 183.949 140.937 168.025 141.387 151.318C137.528 151.214 133.304 150.915 128.92 150.293C128.92 150.293 126.173 165.677 125.631 178.732C131.69 183.944 139.467 183.949 139.467 183.949Z" fill="#232323"/>
<path opacity="0.29" d="M140.795 123.74C139.278 109.854 138.723 99.0544 138.932 93.6824C131.081 96.3274 126.494 104.145 127.424 112.721L133.51 140.033C134.014 144.712 136.957 148.747 141.131 150.706C142.016 137.925 142.272 137.263 140.795 123.74Z" fill="#232323"/>
<path opacity="0.29" d="M160.885 141.071C160.895 128.337 160.997 131.488 161.204 127.05L162.227 117.535C162.227 117.535 162.953 113.834 163.256 109.62C162.28 101.871 157.591 95.3684 150.441 93.6824C150.569 96.1704 150.062 108.821 148.204 125.896C146.683 139.87 148.936 172.411 149.789 183.948C155.34 182.688 164.272 182.333 164.771 176.297L160.899 143.005C160.889 142.369 160.884 141.724 160.885 141.071Z" fill="#232323"/>
<path d="M138.931 93.6835C138.931 93.6835 137.789 106.697 139.878 125.897C141.968 145.097 138.619 181.514 138.619 181.514C138.619 181.514 128.548 181.514 122.767 173.602C122.767 173.602 128.341 159.829 126.483 140.076C124.625 120.323 121.425 124.245 127.102 110.334L125.244 117.226C125.244 117.226 122.354 99.7305 127.515 97.7425C132.678 95.7555 138.931 93.6835 138.931 93.6835Z" fill="#313333"/>
<path d="M150.441 93.6835C150.441 93.6835 151.3 106.697 149.211 125.897C147.121 145.097 150.47 181.514 150.47 181.514C150.47 181.514 160.541 181.514 166.322 173.602C166.322 173.602 161.878 160.912 161.893 141.072C161.903 128.338 162.005 131.49 162.212 127.051L163.235 117.536C163.235 117.536 166.735 99.7305 161.573 97.7435C156.411 95.7555 150.441 93.6835 150.441 93.6835Z" fill="#313333"/>
<path d="M131.002 296.154C131.002 296.154 134.537 297.743 137.324 296.154C137.324 296.154 136.705 304.036 138.563 309.852C140.421 315.667 129.273 315.139 128.963 312.163C128.652 309.188 131.338 300.568 131.002 296.154Z" fill="#232323"/>
<path d="M169.427 296.154C169.427 296.154 171.827 304.673 170.427 312.544C170.233 313.634 171.155 314.604 172.247 314.424C173.607 314.201 175.37 313.405 176.86 311.072C179.75 306.544 177.066 301.212 177.066 301.212L178.202 303.654L179.131 299.973C179.131 299.973 176.455 294.795 175.312 293.847C175.312 293.847 172.627 296.912 169.427 296.154Z" fill="#232323"/>
<path d="M150.449 148.793C150.449 148.793 144.954 149.955 141.375 151.312C137.796 152.669 132.305 150.52 131.417 147.384C130.529 144.249 142.653 145.325 142.653 145.325L147.686 144.65L150.449 148.793Z" fill="#FFC7C7"/>
<path d="M123.789 100.95L116.528 134.616L117.977 132.474L106.062 140.993C104.392 142.187 104.007 144.508 105.2 146.177C106.394 147.847 108.715 148.232 110.384 147.039L122.3 138.52L123.374 137.752L123.749 136.378L132.815 103.153C133.491 100.677 132.031 98.1224 129.555 97.4474C127.079 96.7714 124.524 98.2314 123.849 100.707C123.828 100.782 123.806 100.874 123.789 100.95Z" fill="#313333"/>
<g opacity="0.29">
<path d="M160.049 98.7445C157.575 99.4235 156.12 101.979 156.799 104.453L162.433 124.979L163.234 117.535C163.234 117.535 166.019 103.349 162.943 98.8935C162.049 98.5495 161.043 98.4715 160.049 98.7445Z" fill="#232323"/>
<path d="M148.695 152.106L162.054 147.665C161.95 145.567 161.89 143.37 161.892 141.072C161.893 139.849 161.895 138.776 161.897 137.826L148.528 143.196C148.543 146.147 148.603 149.148 148.695 152.106Z" fill="#232323"/>
</g>
<path d="M142.748 150.829C146.206 149.691 150.449 148.793 150.449 148.793L147.685 144.651L142.652 145.326C142.652 145.326 141.854 145.255 140.684 145.203L142.748 150.829Z" fill="#FFC7C7"/>
<path d="M144.29 152.436L173.21 142.82C175.644 142.007 177.028 139.405 176.301 136.921L176.271 136.817L165.738 100.785C165.027 98.3585 162.498 96.9375 160.05 97.6095C157.576 98.2885 156.121 100.844 156.8 103.318L165.557 135.22L141.519 144.876L144.29 152.436Z" fill="#313333"/>
<path d="M135.448 159.343H109.452L100.161 120.724H126.157L135.448 159.343Z" fill="#AFAFAF"/>
<path d="M134.827 159.962H108.832L99.5425 121.343H125.537L134.827 159.962Z" fill="#303030"/>
<path d="M120.138 126.516H107.128L106.394 124.05H119.404L120.138 126.516Z" fill="#232323"/>
<path d="M117.61 125.444H109.385L109.152 124.349H117.378L117.61 125.444Z" fill="#AFAFAF"/>
<path d="M104.581 142.29C104.581 142.29 106.995 144.013 109.152 144.168C111.31 144.323 111.474 148.945 109.152 150.293C106.83 151.641 105.284 151.773 104.581 150.293C103.878 148.814 102.513 141.124 104.581 142.29Z" fill="#FFC7C7"/>
<path d="M152.43 76.7944C152.045 83.8024 147.768 88.9994 143.53 88.9994C139.996 88.9994 136.074 84.9874 134.792 80.3594C134.631 79.7784 134.482 79.0284 134.365 78.2264C134.171 76.9004 134.063 75.4304 134.123 74.3394C134.508 67.3314 137.929 63.3534 143.505 63.6214C149.081 63.8884 152.815 69.7864 152.43 76.7944Z" fill="#FFC7C7"/>
<path d="M136.948 66.1634C136.948 66.1634 140.518 74.3414 148.527 76.9074C148.527 76.9074 152.794 79.5474 149.474 85.5694C146.154 91.5914 151.651 94.1784 151.651 94.1784L160.048 97.6094C160.048 97.6094 154.96 91.5484 155.37 81.7274C155.78 71.9064 152.392 63.9824 144.753 63.0254C137.114 62.0684 136.948 66.1634 136.948 66.1634Z" fill="#2E2E4F"/>
<path d="M153.091 79.1574C152.988 81.0344 152.122 82.5184 151.378 82.4834C150.634 82.4474 150.114 80.8974 150.217 79.0204C150.32 77.1434 150.958 76.5544 151.702 76.5904C152.446 76.6254 153.194 77.2804 153.091 79.1574Z" fill="#FFC7C7"/>
<path d="M138.653 66.6084C138.653 66.6084 137.513 77.2104 134.791 80.3594C132.069 83.5084 133.65 95.4944 133.65 95.4944L129.553 97.4464C129.553 97.4464 132.878 82.6654 132.978 76.9074C133.078 71.1494 134.012 65.6804 139.382 64.3524C144.753 63.0254 138.653 66.6084 138.653 66.6084Z" fill="#2E2E4F"/>
<path d="M125.941 22.4223C128.516 26.6353 127.187 32.1373 122.974 34.7123L99.7734 48.8913C95.5604 51.4663 90.0584 50.1373 87.4834 45.9253C84.9084 41.7123 86.2374 36.2103 90.4504 33.6353L113.651 19.4563C117.864 16.8813 123.367 18.2093 125.941 22.4223Z" fill="#FFD79E"/>
<path d="M87.4834 45.9244C90.0584 50.1374 95.5604 51.4654 99.7734 48.8904L111.374 41.8014L102.05 26.5454L90.4494 33.6344C86.2374 36.2094 84.9094 41.7114 87.4834 45.9244Z" fill="#FCFCFC"/>
<path opacity="0.33" d="M87.4834 45.9244C87.8634 46.5474 88.3094 47.1054 88.8044 47.5984C87.5744 43.7614 89.0674 39.4414 92.6574 37.2474L115.858 23.0684C119.448 20.8744 123.974 21.5164 126.827 24.3604C126.614 23.6954 126.321 23.0434 125.94 22.4214C123.365 18.2084 117.863 16.8804 113.65 19.4554L90.4494 33.6343C86.2374 36.2093 84.9094 41.7114 87.4834 45.9244Z" fill="#B3D2CD"/>
<path d="M366.055 239.855L353.084 211.142C353.084 211.142 349.295 210.629 344.965 212.252L340.194 204.139L343.235 213.01C341.072 214.103 338.881 215.791 337.044 218.388L350.015 247.101L354.681 244.993L356.699 249.459L354.658 250.381L356.238 253.878L367.028 249.004L365.448 245.507L363.407 246.429L361.389 241.963L366.055 239.855ZM350.966 244.022L349.562 240.913L354.8 238.547L353.92 236.599L348.682 238.965L347.826 237.07L353.064 234.704L352.184 232.756L346.946 235.122L346.09 233.227L351.328 230.861L350.448 228.913L345.21 231.279L344.354 229.384L349.592 227.018L348.712 225.07L343.474 227.436L342.618 225.541L347.856 223.175L346.976 221.227L341.738 223.593L339.983 219.707L352.134 214.218L363.117 238.531L350.966 244.022Z" fill="#AFEEFF"/>
<path d="M331.475 54.0035L304.626 71.1555C304.126 71.4745 303.98 72.1395 304.299 72.6385L331.895 115.835C332.214 116.335 332.878 116.481 333.378 116.162L360.227 99.0105C360.727 98.6915 360.873 98.0265 360.554 97.5275L332.958 54.3305C332.639 53.8295 331.975 53.6835 331.475 54.0035ZM358.166 97.7785L333.127 113.774L306.687 72.3875L331.726 56.3915L358.166 97.7785Z" fill="#AFEEFF"/>
<path d="M314.201 77.8905C315.039 79.2015 316.781 79.5855 318.092 78.7475C319.403 77.9095 319.787 76.1675 318.95 74.8565C318.112 73.5455 316.37 73.1615 315.059 73.9985C313.747 74.8375 313.363 76.5795 314.201 77.8905Z" fill="#AFEEFF"/>
<path d="M325.398 74.0805C326.709 73.2425 327.093 71.5005 326.255 70.1895C325.417 68.8785 323.675 68.4945 322.364 69.3315C321.053 70.1695 320.669 71.9115 321.506 73.2225C322.344 74.5345 324.087 74.9185 325.398 74.0805Z" fill="#AFEEFF"/>
<path d="M332.704 69.4134C334.015 68.5754 334.399 66.8334 333.561 65.5224C332.723 64.2114 330.981 63.8274 329.67 64.6644C328.359 65.5024 327.975 67.2444 328.812 68.5554C329.65 69.8674 331.393 70.2514 332.704 69.4134Z" fill="#AFEEFF"/>
<path d="M323.834 87.7365C325.145 86.8985 325.529 85.1565 324.692 83.8455C323.854 82.5345 322.112 82.1505 320.801 82.9885C319.49 83.8265 319.106 85.5685 319.943 86.8795C320.781 88.1905 322.523 88.5745 323.834 87.7365Z" fill="#AFEEFF"/>
<path d="M327.249 82.2114C328.087 83.5224 329.829 83.9064 331.14 83.0684C332.451 82.2304 332.835 80.4884 331.997 79.1774C331.159 77.8664 329.417 77.4824 328.106 78.3204C326.795 79.1574 326.411 80.9004 327.249 82.2114Z" fill="#AFEEFF"/>
<path d="M334.555 77.5444C335.393 78.8554 337.135 79.2394 338.446 78.4014C339.757 77.5634 340.141 75.8214 339.304 74.5104C338.466 73.1994 336.724 72.8154 335.413 73.6534C334.101 74.4904 333.717 76.2324 334.555 77.5444Z" fill="#AFEEFF"/>
<path d="M330.434 92.8334C329.596 91.5224 327.854 91.1384 326.543 91.9754C325.232 92.8134 324.848 94.5554 325.685 95.8664C326.523 97.1774 328.265 97.5614 329.576 96.7234C330.887 95.8864 331.272 94.1444 330.434 92.8334Z" fill="#AFEEFF"/>
<path d="M337.74 88.1664C336.902 86.8554 335.16 86.4714 333.849 87.3094C332.538 88.1474 332.154 89.8894 332.992 91.2004C333.83 92.5114 335.572 92.8954 336.883 92.0584C338.193 91.2194 338.577 89.4774 337.74 88.1664Z" fill="#AFEEFF"/>
<path d="M341.154 82.6414C339.843 83.4794 339.459 85.2214 340.296 86.5324C341.134 87.8434 342.876 88.2274 344.187 87.3904C345.498 86.5524 345.882 84.8104 345.045 83.4994C344.208 82.1874 342.466 81.8034 341.154 82.6414Z" fill="#AFEEFF"/>
<path d="M332.285 100.963C330.974 101.801 330.59 103.543 331.427 104.854C332.265 106.165 334.007 106.549 335.318 105.712C336.629 104.874 337.013 103.132 336.175 101.821C335.338 100.51 333.596 100.126 332.285 100.963Z" fill="#AFEEFF"/>
<path d="M339.59 96.2964C338.279 97.1344 337.895 98.8764 338.732 100.187C339.57 101.498 341.312 101.882 342.623 101.045C343.934 100.207 344.318 98.4654 343.481 97.1544C342.644 95.8424 340.902 95.4584 339.59 96.2964Z" fill="#AFEEFF"/>
<path d="M346.896 91.6295C345.585 92.4675 345.201 94.2095 346.038 95.5205C346.875 96.8315 348.618 97.2155 349.929 96.3775C351.24 95.5395 351.624 93.7975 350.787 92.4865C349.95 91.1755 348.208 90.7915 346.896 91.6295Z" fill="#AFEEFF"/>
<path d="M260.529 261.271C260.529 266.15 256.574 270.104 251.696 270.104H247.756V292.665H251.696C256.575 292.665 260.529 296.62 260.529 301.499C260.529 303.125 261.847 304.443 263.473 304.443H303.701C305.327 304.443 306.645 303.125 306.645 301.499V261.271C306.645 259.645 305.327 258.327 303.701 258.327H263.473C261.847 258.326 260.529 259.645 260.529 261.271Z" fill="#FFD79E"/>
<path d="M267.828 267.866V304.444H298.185V267.866H267.828Z" fill="#FCFCFC"/>
<g opacity="0.53">
<path d="M267.372 299.994C265.342 299.994 263.697 298.676 263.697 297.05C263.697 292.171 258.761 288.217 252.672 288.217H247.755V292.666H251.695C256.574 292.666 260.528 296.621 260.528 301.5C260.528 303.126 261.846 304.444 263.472 304.444H303.7C305.326 304.444 306.644 303.126 306.644 301.5V299.995H267.372V299.994Z" fill="#F9B9EE"/>
</g>
<path opacity="0.25" d="M283.673 258.326H263.473C261.847 258.326 260.529 259.644 260.529 261.27C260.529 266.149 256.574 270.103 251.696 270.103H247.756V292.664H251.696C256.575 292.664 260.529 296.619 260.529 301.498C260.529 303.124 261.847 304.442 263.473 304.442H273.453L283.673 258.326Z" fill="#FCFCFC"/>
<path d="M249.976 269.693H248.988V293.14H249.976V269.693Z" fill="#FFD79E"/>
<path opacity="0.5" d="M249.976 269.693H248.988V293.14H249.976V269.693Z" fill="#FFD79E"/>
<path d="M253.76 269.693H252.772V293.14H253.76V269.693Z" fill="#FFD79E"/>
<path opacity="0.5" d="M253.76 269.693H252.772V293.14H253.76V269.693Z" fill="#FFD79E"/>
<path d="M251.883 269.693H250.895V293.14H251.883V269.693Z" fill="#FFD79E"/>
<path opacity="0.5" d="M251.883 269.693H250.895V293.14H251.883V269.693Z" fill="#FFD79E"/>
<path d="M198.983 282.452C197.824 278.557 200.042 274.459 203.937 273.3L225.389 266.916C229.284 265.757 233.382 267.975 234.541 271.87C235.7 275.765 233.482 279.863 229.587 281.022L208.135 287.406C204.239 288.565 200.142 286.347 198.983 282.452Z" fill="#9CFAED"/>
<path d="M234.54 271.869C233.381 267.974 229.283 265.756 225.388 266.915L214.662 270.107L218.86 284.213L229.586 281.021C233.482 279.862 235.699 275.764 234.54 271.869Z" fill="#FCFCFC"/>
<path opacity="0.33" d="M234.54 271.869C234.369 271.293 234.132 270.755 233.842 270.258C234.011 273.57 231.911 276.692 228.592 277.68L207.14 284.064C203.82 285.052 200.355 283.586 198.686 280.721C198.715 281.295 198.811 281.875 198.982 282.451C200.141 286.346 204.239 288.564 208.134 287.405L229.586 281.021C233.482 279.862 235.699 275.764 234.54 271.869Z" fill="#B3D2CD"/>
<path d="M263.669 35.5834C270.388 24.5654 266.889 10.1344 255.871 3.41641C244.853 -3.30259 230.423 0.196409 223.704 11.2144C217.536 21.3304 219.985 34.3164 228.953 41.5764C228.38 41.8714 227.875 42.3184 227.513 42.9084L210.936 69.9224C209.881 71.6414 210.42 73.8904 212.139 74.9454C212.142 74.9474 212.145 74.9494 212.148 74.9514C213.866 75.9984 216.109 75.4594 217.162 73.7434L233.739 46.7294C234.105 46.1334 234.276 45.4744 234.276 44.8234C244.835 49.4684 257.5 45.6984 263.669 35.5834ZM233.165 40.6524C223.651 34.8514 220.631 22.3914 226.432 12.8774C232.233 3.36341 244.693 0.343409 254.207 6.14441C263.721 11.9454 266.742 24.4054 260.94 33.9194C255.139 43.4334 242.679 46.4534 233.165 40.6524ZM256.26 17.6714C256.26 13.3884 254.658 9.91741 251.018 9.91741C249.86 9.91741 248.634 10.2694 247.502 10.8874C244.061 12.1694 240.942 10.8874 240.942 10.8874C239.81 10.2694 238.586 9.91741 237.427 9.91741C233.787 9.91741 232.183 13.3894 232.183 17.6714C232.183 19.9894 233.305 22.7244 234.912 24.7454C233.348 32.3844 236.663 39.0414 239.207 39.5314C241.643 40.0004 240.567 27.0434 243.7 26.4014C243.784 26.3854 243.866 26.3774 243.945 26.3774C244.024 26.3774 244.106 26.3854 244.19 26.4014C247.324 27.0444 246.249 40.0014 248.685 39.5314C251.169 39.0524 254.388 32.7114 253.08 25.2804C254.924 23.2264 256.26 20.2004 256.26 17.6714Z" fill="#AFEEFF"/>
<path d="M314.654 216.169C312.406 219.783 307.654 220.89 304.039 218.642L284.136 206.261C280.522 204.013 279.415 199.261 281.663 195.647C283.911 192.033 288.663 190.926 292.278 193.174L312.181 205.555C315.795 207.803 316.902 212.555 314.654 216.169Z" fill="#4E22A6"/>
<path d="M281.664 195.647C279.416 199.261 280.523 204.013 284.137 206.262L294.088 212.452L302.229 199.364L292.278 193.174C288.664 190.925 283.912 192.033 281.664 195.647Z" fill="#FCFCFC"/>
<path opacity="0.33" d="M281.664 195.647C281.332 196.181 281.075 196.741 280.886 197.313C283.365 194.88 287.27 194.358 290.35 196.274L310.253 208.655C313.333 210.571 314.59 214.305 313.504 217.604C313.934 217.182 314.322 216.704 314.654 216.17C316.902 212.556 315.795 207.804 312.181 205.556L292.278 193.175C288.664 190.925 283.912 192.033 281.664 195.647Z" fill="#B3D2CD"/>
<defs>
<linearGradient id="paint0_linear_102_5" x1="45.112" y1="166.033" x2="342.426" y2="166.033" gradientUnits="userSpaceOnUse">
<stop stop-color="#EEA3B7"/>
<stop offset="1" stop-color="#4E22A6"/>
</linearGradient>
<linearGradient id="paint1_linear_102_5" x1="-4.94777" y1="81.4513" x2="29.3576" y2="103.144" gradientUnits="userSpaceOnUse">
<stop stop-color="#F8F8F8"/>
<stop offset="1" stop-color="#D7F8FF"/>
</linearGradient>
<linearGradient id="paint2_linear_102_5" x1="-6.7535" y1="84.3061" x2="27.5521" y2="105.999" gradientUnits="userSpaceOnUse">
<stop stop-color="#F8F8F8"/>
<stop offset="1" stop-color="#D7F8FF"/>
</linearGradient>
</defs>
</svg>
