<svg width="382" height="73" viewBox="0 0 382 73" fill="none" xmlns="http://www.w3.org/2000/svg">
<mask id="mask0_109_265" style="mask-type:luminance" maskUnits="userSpaceOnUse" x="42" y="53" width="22" height="20">
<path d="M42.6667 53.6667H64V72.3334H42.6667V53.6667Z" fill="white"/>
</mask>
<g mask="url(#mask0_109_265)">
<mask id="mask1_109_265" style="mask-type:luminance" maskUnits="userSpaceOnUse" x="43" y="46" width="26" height="27">
<path d="M43.0104 57.8177L57.349 46.3334L68.8333 60.6719L54.4948 72.1563L43.0104 57.8177Z" fill="white"/>
</mask>
<g mask="url(#mask1_109_265)">
<mask id="mask2_109_265" style="mask-type:luminance" maskUnits="userSpaceOnUse" x="43" y="46" width="26" height="27">
<path d="M43.0104 57.8177L57.349 46.3334L68.8333 60.6719L54.4948 72.1563L43.0104 57.8177Z" fill="white"/>
</mask>
<g mask="url(#mask2_109_265)">
<path d="M43.0677 57.7708L62.974 53.6719L54.6719 72.375C53.7292 66.5208 52.2135 60.8594 43.0677 57.7708Z" fill="#7C50D4"/>
</g>
</g>
</g>
<mask id="mask3_109_265" style="mask-type:luminance" maskUnits="userSpaceOnUse" x="0" y="0" width="60" height="70">
<path d="M-7.62939e-06 0.333374H60V69.6667H-7.62939e-06V0.333374Z" fill="white"/>
</mask>
<g mask="url(#mask3_109_265)">
<mask id="mask4_109_265" style="mask-type:luminance" maskUnits="userSpaceOnUse" x="-26" y="-18" width="109" height="109">
<path d="M30.375 -17.7448L82.7604 38.375L27.1198 90.3125L-25.2656 34.1928L30.375 -17.7448Z" fill="white"/>
</mask>
<g mask="url(#mask4_109_265)">
<mask id="mask5_109_265" style="mask-type:luminance" maskUnits="userSpaceOnUse" x="-26" y="-18" width="109" height="109">
<path d="M30.375 -17.7448L82.7604 38.375L27.1198 90.3125L-25.2656 34.1928L30.375 -17.7448Z" fill="white"/>
</mask>
<g mask="url(#mask5_109_265)">
<path d="M58.5573 60.5521C38.8281 78.1042 7.72916 69.0469 1.11457 43.3438C-4.82293 18.6303 16.9948 -3.67704 41.8125 2.39588C44.9531 3.20838 47.9167 4.45317 50.7031 6.13025C53.4844 7.80734 55.9687 9.84379 58.1615 12.2396C55.9115 9.94796 53.3854 8.02609 50.5781 6.4688C47.7656 4.91151 44.7969 3.7865 41.6614 3.08859C14.0469 -2.49475 -6.92709 26.7084 8.03645 50.7917C8.54687 51.573 9.08853 52.3334 9.66145 53.0625C10.2396 53.7969 10.8437 54.5053 11.4896 55.1823C12.1302 55.8594 12.7969 56.5053 13.5 57.1198C14.1979 57.7396 14.9271 58.323 15.6771 58.8698C16.4323 59.4167 17.2083 59.9323 18.0104 60.4115C18.8125 60.8907 19.6302 61.3282 20.474 61.7344C21.3125 62.1355 22.1719 62.5 23.0469 62.823C23.9219 63.1459 24.8073 63.4271 25.7083 63.6719C26.6094 63.9167 27.5208 64.1146 28.4375 64.2761C29.3594 64.4323 30.2812 64.5521 31.2083 64.625C32.1406 64.698 33.0729 64.7292 34.0052 64.7188C34.9375 64.7084 35.8646 64.6563 36.7917 64.5573C37.7239 64.4584 38.6406 64.323 39.5573 64.1407C40.4739 63.9584 41.375 63.7396 42.2708 63.474C43.1667 63.2084 44.0469 62.9063 44.9115 62.5573C45.7812 62.2136 46.6302 61.8282 47.4583 61.4063C50.0937 60.0053 52.4896 58.2813 54.6615 56.2292C57.6146 53.6823 61.4062 57.8907 58.5365 60.573L58.5573 60.5521Z" fill="#7C50D4"/>
</g>
</g>
</g>
<mask id="mask6_109_265" style="mask-type:luminance" maskUnits="userSpaceOnUse" x="58" y="16" width="8" height="7">
<path d="M58.6667 16.3334H65.3333V23H58.6667V16.3334Z" fill="white"/>
</mask>
<g mask="url(#mask6_109_265)">
<mask id="mask7_109_265" style="mask-type:luminance" maskUnits="userSpaceOnUse" x="58" y="16" width="7" height="7">
<path d="M60.4896 16.6719L64.8073 18.2396L63.2344 22.5573L58.9167 20.9844L60.4896 16.6719Z" fill="white"/>
</mask>
<g mask="url(#mask7_109_265)">
<mask id="mask8_109_265" style="mask-type:luminance" maskUnits="userSpaceOnUse" x="58" y="16" width="7" height="7">
<path d="M60.4896 16.6719L64.8073 18.2396L63.2344 22.5573L58.9167 20.9844L60.4896 16.6719Z" fill="white"/>
</mask>
<g mask="url(#mask8_109_265)">
<path fill-rule="evenodd" clip-rule="evenodd" d="M62.6354 17.4531C63.8177 17.8802 64.4271 19.1927 63.9948 20.375C63.5625 21.5573 62.2552 22.1667 61.0729 21.7396C59.8854 21.3073 59.276 19.9948 59.7083 18.8125C60.1406 17.6302 61.4479 17.0209 62.6354 17.4531Z" fill="#7C50D4"/>
</g>
</g>
</g>
<mask id="mask9_109_265" style="mask-type:luminance" maskUnits="userSpaceOnUse" x="65" y="28" width="6" height="7">
<path d="M65.3333 28.3334H70.6667V35H65.3333V28.3334Z" fill="white"/>
</mask>
<g mask="url(#mask9_109_265)">
<mask id="mask10_109_265" style="mask-type:luminance" maskUnits="userSpaceOnUse" x="65" y="28" width="7" height="7">
<path d="M66.7969 28.875L71.1094 30.4427L69.5417 34.7604L65.224 33.1875L66.7969 28.875Z" fill="white"/>
</mask>
<g mask="url(#mask10_109_265)">
<mask id="mask11_109_265" style="mask-type:luminance" maskUnits="userSpaceOnUse" x="65" y="28" width="7" height="7">
<path d="M66.7969 28.875L71.1094 30.4427L69.5417 34.7604L65.224 33.1875L66.7969 28.875Z" fill="white"/>
</mask>
<g mask="url(#mask11_109_265)">
<path fill-rule="evenodd" clip-rule="evenodd" d="M68.9375 29.6563C70.125 30.0834 70.7344 31.3959 70.3021 32.5781C69.8698 33.7604 68.5625 34.3698 67.3802 33.9427C66.1927 33.5104 65.5833 32.1979 66.0156 31.0156C66.4479 29.8334 67.7552 29.224 68.9375 29.6563Z" fill="#7C50D4"/>
</g>
</g>
</g>
<mask id="mask12_109_265" style="mask-type:luminance" maskUnits="userSpaceOnUse" x="62" y="41" width="8" height="6">
<path d="M62.6667 41.6667H69.3333V47H62.6667V41.6667Z" fill="white"/>
</mask>
<g mask="url(#mask12_109_265)">
<mask id="mask13_109_265" style="mask-type:luminance" maskUnits="userSpaceOnUse" x="63" y="41" width="6" height="7">
<path d="M64.6667 41.3854L68.9844 42.9531L67.4115 47.2709L63.099 45.6979L64.6667 41.3854Z" fill="white"/>
</mask>
<g mask="url(#mask13_109_265)">
<mask id="mask14_109_265" style="mask-type:luminance" maskUnits="userSpaceOnUse" x="63" y="41" width="6" height="7">
<path d="M64.6667 41.3854L68.9844 42.9531L67.4115 47.2709L63.099 45.6979L64.6667 41.3854Z" fill="white"/>
</mask>
<g mask="url(#mask14_109_265)">
<path fill-rule="evenodd" clip-rule="evenodd" d="M66.8125 42.1615C67.9948 42.5938 68.6042 43.9063 68.1771 45.0886C67.7448 46.2709 66.4323 46.8802 65.25 46.4532C64.0677 46.0209 63.4583 44.7084 63.8906 43.5261C64.3177 42.3438 65.6302 41.7344 66.8125 42.1615Z" fill="#7C50D4"/>
</g>
</g>
</g>
<mask id="mask15_109_265" style="mask-type:luminance" maskUnits="userSpaceOnUse" x="14" y="17" width="40" height="40">
<path d="M14.6667 17.6667H53.3333V56.9375H14.6667V17.6667Z" fill="white"/>
</mask>
<g mask="url(#mask15_109_265)">
<path d="M20.2448 35.5729C23.7708 39.099 26.2865 42.6198 28.8021 47.151C40.5469 25.0052 54.8073 14.9375 51.7865 18.4583C42.224 30.7083 35.6823 43.125 29.3073 57.2187C25.6146 50.5052 20.9167 41.6146 15.2135 39.7656C13.5312 38.0885 17.5625 34.0625 20.2448 35.5729Z" fill="#5223AF"/>
</g>
<path d="M100.016 17.6429V30.4138H88.1203V17.4138L82.3911 17.6429V47.8096H88.1203V35.0388H100.016V47.8096H105.724V17.6429H100.016Z" fill="#4E22A6"/>
<path d="M119.007 43.3304V34.8513H129.778L128.861 30.2888H119.007V22.1638H132.174L131.299 17.6429H113.278V47.8096H134.403L133.465 43.3304H119.007Z" fill="#4E22A6"/>
<path d="M141.498 47.8096L144.165 40.7054H155.623L158.311 48.2471L164.082 47.4554L152.373 17.6429H147.498L135.728 47.8096H141.498ZM149.811 25.5388L153.832 36.0596H145.853L149.811 25.5388Z" fill="#4E22A6"/>
<path d="M174.035 17.6429H168.306V47.8096H188.222L187.347 43.3304H174.035V17.6429Z" fill="#4E22A6"/>
<path d="M189.114 22.1638H198.301V47.8096H204.114V22.1638H214.468L213.53 17.6429H189.114V22.1638Z" fill="#4E22A6"/>
<path d="M236.299 17.6429V30.4138H224.403V17.4138L218.674 17.6429V47.8096H224.403V35.0388H236.299V47.8096H242.007V17.6429H236.299Z" fill="#4E22A6"/>
<path d="M247.873 45.8096C248.883 46.4346 250.316 47.0283 252.165 47.5804C254.008 48.1221 255.55 48.3929 256.79 48.3929C259.165 48.3929 261.196 48.0387 262.894 47.3304C264.602 46.6117 265.883 45.6325 266.748 44.3929C267.623 43.1585 268.06 41.721 268.06 40.0804C268.06 38.6377 267.711 37.3825 267.019 36.3096C266.321 35.2262 265.456 34.3096 264.415 33.5596C263.383 32.7992 261.998 31.9085 260.248 30.8929L258.977 30.1429L257.54 29.3512C256.04 28.4658 254.956 27.7367 254.29 27.1637C253.623 26.5804 253.29 25.8617 253.29 24.9971C253.29 23.9971 253.706 23.2419 254.54 22.7262C255.383 22.2002 256.477 21.9346 257.81 21.9346C258.961 21.9346 260.029 22.1012 261.019 22.4346C262.019 22.7575 263.123 23.2158 264.331 23.8096L266.248 19.1846C263.107 17.6846 260.269 16.9346 257.727 16.9346C255.56 16.9346 253.696 17.2835 252.144 17.9762C250.602 18.6742 249.415 19.6325 248.581 20.8512C247.758 22.0752 247.352 23.4554 247.352 24.9971C247.352 26.4554 247.769 27.7679 248.602 28.9346C249.446 30.1012 250.456 31.1169 251.623 31.9762C252.79 32.8252 254.363 33.846 256.352 35.0387L257.685 35.8304C259.185 36.6637 260.295 37.3877 261.019 37.9971C261.753 38.596 262.123 39.2627 262.123 39.9971C262.123 41.07 261.665 41.8877 260.748 42.4554C259.831 43.0127 258.482 43.2887 256.706 43.2887C255.55 43.2887 254.279 43.0752 252.894 42.6429C251.503 42.2158 250.258 41.7158 249.165 41.1429L247.873 45.8096Z" fill="#4E22A6"/>
<path d="M295.718 17.6429H289.635L282.301 30.2471L275.301 17.0179L269.614 18.6638L279.468 36.0596V47.8096H285.239V36.2679L295.718 17.6429Z" fill="#4E22A6"/>
<path d="M319.637 47.8096H325.408V17.6429H319.637V37.7888L305.658 17.6429H299.929V47.8096H305.658V27.6221L319.637 47.8096Z" fill="#4E22A6"/>
<path d="M353.279 18.9554C352.081 18.32 350.716 17.8409 349.175 17.5179C347.643 17.1846 346.346 17.0179 345.279 17.0179C342.372 17.0179 339.82 17.695 337.612 19.0388C335.414 20.3877 333.721 22.2627 332.529 24.6638C331.331 27.0544 330.737 29.7836 330.737 32.8513C330.737 35.8096 331.279 38.4711 332.362 40.8304C333.456 43.1794 335.081 45.0336 337.237 46.3929C339.404 47.7575 342.013 48.4346 345.07 48.4346C346.362 48.4346 347.81 48.2523 349.425 47.8929C351.034 47.5492 352.404 47.0752 353.529 46.4763L351.362 42.2263C349.138 43.1429 346.935 43.6013 344.758 43.6013C343.091 43.6013 341.654 43.1221 340.445 42.1638C339.237 41.195 338.31 39.8877 337.675 38.2471C337.034 36.6117 336.716 34.7992 336.716 32.8096C336.716 30.5909 337.076 28.6534 337.8 26.9971C338.518 25.3461 339.518 24.0752 340.8 23.1846C342.076 22.2992 343.513 21.8513 345.112 21.8513C346.112 21.8513 346.951 21.9242 347.633 22.0596C348.31 22.1846 349.227 22.4294 350.383 22.7888L351.487 23.1013L353.279 18.9554Z" fill="#4E22A6"/>
<path d="M375.599 17.6429V30.4138H363.703V17.4138L357.974 17.6429V47.8096H363.703V35.0388H375.599V47.8096H381.308V17.6429H375.599Z" fill="#4E22A6"/>
<path d="M101.176 59.9316V58.8951H95.7122V68.8951H101.176V67.8639H96.7747V64.4108H100.608V63.3795H96.7747V59.9316H101.176Z" fill="black"/>
<path d="M109.773 62.0983C108.971 62.0983 108.273 62.4785 107.825 63.0983C107.372 62.4785 106.674 62.0983 105.971 62.0983C105.372 62.0983 104.825 62.3951 104.424 62.8483V62.2285H103.392V68.8951H104.424V64.6295C104.424 63.7962 105.054 63.1295 105.872 63.1295C106.658 63.1295 107.304 63.7962 107.304 64.6295V68.8951H108.34V64.6295C108.34 63.7962 108.986 63.1295 109.773 63.1295C110.57 63.1295 111.221 63.7962 111.221 64.6295V68.8951H112.257V64.6295C112.257 63.2285 111.153 62.0983 109.773 62.0983Z" fill="black"/>
<path d="M118.052 62.0983C117.104 62.0983 116.25 62.4785 115.619 63.0983V62.2285H114.588V72.8951H115.619V68.0306C116.25 68.6451 117.104 69.0306 118.052 69.0306C119.968 69.0306 121.515 67.4785 121.515 65.5618C121.515 63.6451 119.968 62.0983 118.052 62.0983ZM118.052 67.9941C116.703 67.9941 115.619 66.9108 115.619 65.5618C115.619 64.2128 116.703 63.1295 118.052 63.1295C119.401 63.1295 120.484 64.2128 120.484 65.5618C120.484 66.9108 119.401 67.9941 118.052 67.9941Z" fill="black"/>
<path d="M126.479 69.0306C128.396 69.0306 129.948 67.4785 129.948 65.5618C129.948 63.6451 128.396 62.0983 126.479 62.0983C124.563 62.0983 123.016 63.6451 123.016 65.5618C123.016 67.4785 124.563 69.0306 126.479 69.0306ZM126.479 67.9941C125.131 67.9941 124.047 66.9108 124.047 65.5618C124.047 64.2128 125.131 63.1295 126.479 63.1295C127.813 63.1295 128.912 64.2128 128.912 65.5618C128.912 66.9108 127.813 67.9941 126.479 67.9941Z" fill="black"/>
<path d="M140.128 62.2285L138.363 67.6972L136.545 62.2285H135.561L133.743 67.6607L132.014 62.2285H130.847L133.144 68.8951H134.279L136.061 63.6607L137.826 68.8951H138.962L141.243 62.2285H140.128Z" fill="black"/>
<path d="M149.074 65.4941C149.022 63.5774 147.506 62.0983 145.605 62.0983C143.689 62.0983 142.142 63.6451 142.142 65.5618C142.142 67.4785 143.689 69.0306 145.605 69.0306C147.189 69.0306 148.506 67.9785 148.939 66.5462H147.84C147.475 67.4108 146.605 67.9941 145.605 67.9941C144.293 67.9941 143.241 66.9941 143.173 65.7128H149.059L149.074 65.4941ZM145.605 63.1295C146.673 63.1295 147.574 63.8118 147.892 64.7806H143.309C143.642 63.8118 144.543 63.1295 145.605 63.1295Z" fill="black"/>
<path d="M154.219 62.0983C153.271 62.0983 152.505 62.5149 152.005 63.1816V62.2285H150.974V68.8951H152.005V65.2806C152.005 64.0618 153.005 63.1295 154.219 63.1295C154.422 63.1295 154.589 63.1451 154.74 63.1972V62.1451C154.589 62.1139 154.422 62.0983 154.219 62.0983Z" fill="black"/>
<path d="M156.685 60.9784C157.07 60.9784 157.403 60.6659 157.403 60.2805C157.403 59.8639 157.07 59.5618 156.685 59.5618C156.289 59.5618 155.955 59.8639 155.955 60.2805C155.955 60.6659 156.289 60.9784 156.685 60.9784ZM156.169 68.8951H157.2V62.2284H156.169V68.8951Z" fill="black"/>
<path d="M162.4 62.0983C161.785 62.0983 161.218 62.3483 160.785 62.7649V62.2285H159.754V68.8951H160.785V64.6451C160.785 63.7962 161.468 63.1295 162.317 63.1295C163.165 63.1295 163.832 63.7962 163.832 64.6451V68.8951H164.869V64.6451C164.869 63.2285 163.686 62.0983 162.4 62.0983Z" fill="black"/>
<path d="M172.629 62.2285V63.0618C172.015 62.4628 171.15 62.0983 170.213 62.0983C168.296 62.0983 166.749 63.6295 166.749 65.5618C166.749 67.4785 168.296 69.0306 170.213 69.0306C171.166 69.0306 172.015 68.6451 172.645 68.0306V69.4785C172.645 70.8118 171.546 71.9108 170.213 71.9108C169.129 71.9108 168.213 71.192 167.9 70.2285L166.947 70.6451C167.431 71.9941 168.713 72.942 170.213 72.942C172.129 72.942 173.681 71.3951 173.681 69.4785V62.2285H172.629ZM170.213 67.9941C168.864 67.9941 167.78 66.8951 167.78 65.5618C167.78 64.2128 168.864 63.1295 170.213 63.1295C171.546 63.1295 172.645 64.2128 172.645 65.5618C172.645 66.8951 171.546 67.9941 170.213 67.9941Z" fill="black"/>
<path d="M191.39 58.8951L188.827 67.1139L186.39 58.8951H184.895L182.494 67.0931L179.942 58.8951H178.812L181.942 68.8951H183.077L185.64 60.0306L188.26 68.8951H189.374L192.489 58.8951H191.39Z" fill="black"/>
<path d="M196.602 69.0306C198.519 69.0306 200.071 67.4785 200.071 65.5618C200.071 63.6451 198.519 62.0983 196.602 62.0983C194.686 62.0983 193.139 63.6451 193.139 65.5618C193.139 67.4785 194.686 69.0306 196.602 69.0306ZM196.602 67.9941C195.253 67.9941 194.17 66.9108 194.17 65.5618C194.17 64.2128 195.253 63.1295 196.602 63.1295C197.936 63.1295 199.035 64.2128 199.035 65.5618C199.035 66.9108 197.936 67.9941 196.602 67.9941Z" fill="black"/>
<path d="M205.282 62.0983C204.334 62.0983 203.569 62.5149 203.069 63.1816V62.2285H202.038V68.8951H203.069V65.2806C203.069 64.0618 204.069 63.1295 205.282 63.1295C205.486 63.1295 205.652 63.1451 205.803 63.1972V62.1451C205.652 62.1139 205.486 62.0983 205.282 62.0983Z" fill="black"/>
<path d="M212.93 68.8951L209.55 65.1972L212.649 62.2285H211.264L208.233 65.1451V56.6295H207.201V68.8951H208.233V65.1816L211.514 68.8951H212.93Z" fill="black"/>
<path d="M217.447 62.0983C216.499 62.0983 215.644 62.4785 215.014 63.0983V62.2285H213.983V72.8951H215.014V68.0306C215.644 68.6451 216.499 69.0306 217.447 69.0306C219.363 69.0306 220.91 67.4785 220.91 65.5618C220.91 63.6451 219.363 62.0983 217.447 62.0983ZM217.447 67.9941C216.098 67.9941 215.014 66.9108 215.014 65.5618C215.014 64.2128 216.098 63.1295 217.447 63.1295C218.795 63.1295 219.879 64.2128 219.879 65.5618C219.879 66.9108 218.795 67.9941 217.447 67.9941Z" fill="black"/>
<path d="M222.88 68.8951H223.911V56.6295H222.88V68.8951Z" fill="black"/>
<path d="M233.491 68.0306C233.126 68.0306 232.808 67.7806 232.808 67.1608V62.2285H231.772V63.0983C231.157 62.4785 230.293 62.0983 229.34 62.0983C227.423 62.0983 225.876 63.6451 225.876 65.5618C225.876 67.4785 227.423 69.0306 229.34 69.0306C230.34 69.0306 231.241 68.5618 231.876 67.8795C232.09 68.5618 232.626 69.0306 233.407 69.0306C233.59 69.0306 233.772 68.9785 233.907 68.8951V68.0306H233.491ZM229.34 67.9941C227.991 67.9941 226.907 66.9108 226.907 65.5618C226.907 64.2128 227.991 63.1295 229.34 63.1295C230.673 63.1295 231.772 64.2128 231.772 65.5618C231.772 66.9108 230.673 67.9941 229.34 67.9941Z" fill="black"/>
<path d="M238.32 69.0306C239.872 69.0306 241.168 68.0306 241.622 66.6295H240.523C240.122 67.4472 239.288 67.9941 238.32 67.9941C236.971 67.9941 235.887 66.9264 235.887 65.5618C235.887 64.1972 236.971 63.1295 238.32 63.1295C239.288 63.1295 240.122 63.6816 240.523 64.4941H241.622C241.168 63.0983 239.872 62.0983 238.32 62.0983C236.403 62.0983 234.856 63.6451 234.856 65.5618C234.856 67.4785 236.403 69.0306 238.32 69.0306Z" fill="black"/>
<path d="M249.735 65.4941C249.683 63.5774 248.168 62.0983 246.266 62.0983C244.35 62.0983 242.803 63.6451 242.803 65.5618C242.803 67.4785 244.35 69.0306 246.266 69.0306C247.85 69.0306 249.168 67.9785 249.6 66.5462H248.501C248.136 67.4108 247.266 67.9941 246.266 67.9941C244.954 67.9941 243.902 66.9941 243.834 65.7128H249.72L249.735 65.4941ZM246.266 63.1295C247.334 63.1295 248.235 63.8118 248.553 64.7806H243.97C244.303 63.8118 245.204 63.1295 246.266 63.1295Z" fill="black"/>
<path d="M262.228 58.8951V63.3639H256.713V58.8951H255.65V68.8951H256.713V64.4316H262.228V68.8951H263.296V58.8951H262.228Z" fill="black"/>
<path d="M272.193 65.4941C272.141 63.5774 270.625 62.0983 268.724 62.0983C266.808 62.0983 265.261 63.6451 265.261 65.5618C265.261 67.4785 266.808 69.0306 268.724 69.0306C270.308 69.0306 271.625 67.9785 272.058 66.5462H270.959C270.594 67.4108 269.724 67.9941 268.724 67.9941C267.412 67.9941 266.36 66.9941 266.292 65.7128H272.178L272.193 65.4941ZM268.724 63.1295C269.792 63.1295 270.693 63.8118 271.011 64.7806H266.428C266.761 63.8118 267.662 63.1295 268.724 63.1295Z" fill="black"/>
<path d="M281.239 68.0306C280.874 68.0306 280.557 67.7806 280.557 67.1608V62.2285H279.52V63.0983C278.906 62.4785 278.041 62.0983 277.088 62.0983C275.171 62.0983 273.624 63.6451 273.624 65.5618C273.624 67.4785 275.171 69.0306 277.088 69.0306C278.088 69.0306 278.989 68.5618 279.624 67.8795C279.838 68.5618 280.374 69.0306 281.156 69.0306C281.338 69.0306 281.52 68.9785 281.656 68.8951V68.0306H281.239ZM277.088 67.9941C275.739 67.9941 274.656 66.9108 274.656 65.5618C274.656 64.2128 275.739 63.1295 277.088 63.1295C278.421 63.1295 279.52 64.2128 279.52 65.5618C279.52 66.9108 278.421 67.9941 277.088 67.9941Z" fill="black"/>
<path d="M283.073 68.8951H284.104V56.6295H283.073V68.8951Z" fill="black"/>
<path d="M289.601 63.2285V62.2285H287.819V59.3326H286.788V62.2285H285.668V63.2285H286.788V67.1451C286.788 68.1972 287.668 69.0306 288.7 69.0306C289.033 69.0306 289.403 68.9264 289.585 68.8118V68.0306H288.819C288.283 68.0306 287.819 67.6295 287.819 67.0097V63.2285H289.601Z" fill="black"/>
<path d="M293.885 62.0983C293.333 62.0983 292.818 62.2806 292.401 62.5826V56.6295H291.37V68.8951H292.401V64.6295C292.401 63.7806 293.068 63.1295 293.885 63.1295C294.698 63.1295 295.385 63.7806 295.385 64.6295V68.8951H296.401V64.6295C296.401 63.2129 295.281 62.0983 293.885 62.0983Z" fill="black"/>
<path d="M309.942 63.3274H309.01V61.6451H307.979V63.3274H305.948C304.88 63.3274 304.031 62.5826 304.031 61.5306C304.031 60.5149 304.843 59.9628 305.76 59.9628H307.942V58.8951H305.578C304.146 58.8951 302.979 59.9628 302.979 61.4785C302.979 62.4316 303.448 63.2649 304.177 63.7962C303.411 64.2962 302.896 65.1816 302.896 66.1608C302.896 67.7441 304.281 68.8951 306.01 68.8951C307.797 68.8951 309.01 67.6972 309.01 66.0618V64.3483H309.942V63.3274ZM305.994 67.9785C304.828 67.9785 303.864 67.2285 303.864 66.1295C303.864 65.1295 304.698 64.3483 305.729 64.3483H307.979V66.0618C307.979 67.1608 307.213 67.9785 305.994 67.9785Z" fill="black"/>
<path d="M327.087 58.8951L324.525 67.1139L322.087 58.8951H320.593L318.191 67.0931L315.639 58.8951H314.509L317.639 68.8951H318.775L321.337 60.0306L323.957 68.8951H325.072L328.186 58.8951H327.087Z" fill="black"/>
<path d="M335.769 65.4941C335.716 63.5774 334.201 62.0983 332.3 62.0983C330.383 62.0983 328.836 63.6451 328.836 65.5618C328.836 67.4785 330.383 69.0306 332.3 69.0306C333.883 69.0306 335.201 67.9785 335.633 66.5462H334.534C334.17 67.4108 333.3 67.9941 332.3 67.9941C330.987 67.9941 329.935 66.9941 329.868 65.7128H335.753L335.769 65.4941ZM332.3 63.1295C333.368 63.1295 334.269 63.8118 334.586 64.7806H330.003C330.336 63.8118 331.237 63.1295 332.3 63.1295Z" fill="black"/>
<path d="M337.668 68.8951H338.7V56.6295H337.668V68.8951Z" fill="black"/>
<path d="M341.134 68.8951H342.165V56.6295H341.134V68.8951Z" fill="black"/>
<path d="M347.245 62.0983C346.63 62.0983 346.063 62.3483 345.63 62.7649V62.2285H344.599V68.8951H345.63V64.6451C345.63 63.7962 346.313 63.1295 347.162 63.1295C348.011 63.1295 348.677 63.7962 348.677 64.6451V68.8951H349.714V64.6451C349.714 63.2285 348.531 62.0983 347.245 62.0983Z" fill="black"/>
<path d="M358.526 65.4941C358.474 63.5774 356.959 62.0983 355.058 62.0983C353.141 62.0983 351.594 63.6451 351.594 65.5618C351.594 67.4785 353.141 69.0306 355.058 69.0306C356.641 69.0306 357.959 67.9785 358.391 66.5462H357.292C356.927 67.4108 356.058 67.9941 355.058 67.9941C353.745 67.9941 352.693 66.9941 352.625 65.7128H358.511L358.526 65.4941ZM355.058 63.1295C356.125 63.1295 357.026 63.8118 357.344 64.7806H352.761C353.094 63.8118 353.995 63.1295 355.058 63.1295Z" fill="black"/>
<path d="M362.072 69.0306C363.239 69.0306 364.208 68.2441 364.208 67.0931C364.208 65.8951 363.208 65.4316 362.338 65.0774C361.525 64.7285 361.109 64.5462 361.109 63.9628C361.109 63.3951 361.489 63.1295 362.041 63.1295C362.473 63.1295 362.859 63.3118 363.041 63.6608L363.942 63.1972C363.692 62.5983 362.838 62.0983 361.989 62.0983C361.01 62.0983 360.057 62.7806 360.057 63.9941C360.057 65.0462 360.76 65.5774 361.942 66.0306C362.739 66.3483 363.171 66.5618 363.171 67.0931C363.171 67.6764 362.671 68.0097 362.072 68.0097C361.458 68.0097 360.859 67.6608 360.76 67.1764L359.76 67.5774C360.01 68.3795 361.01 69.0306 362.072 69.0306Z" fill="black"/>
<path d="M367.587 69.0306C368.753 69.0306 369.722 68.2441 369.722 67.0931C369.722 65.8951 368.722 65.4316 367.852 65.0774C367.04 64.7285 366.623 64.5462 366.623 63.9628C366.623 63.3951 367.003 63.1295 367.555 63.1295C367.988 63.1295 368.373 63.3118 368.555 63.6608L369.456 63.1972C369.206 62.5983 368.352 62.0983 367.503 62.0983C366.524 62.0983 365.571 62.7806 365.571 63.9941C365.571 65.0462 366.274 65.5774 367.456 66.0306C368.253 66.3483 368.686 66.5618 368.686 67.0931C368.686 67.6764 368.186 68.0097 367.587 68.0097C366.972 68.0097 366.373 67.6608 366.274 67.1764L365.274 67.5774C365.524 68.3795 366.524 69.0306 367.587 69.0306Z" fill="black"/>
</svg>
